<svg width="120" height="120" viewBox="0 0 120 120" fill="none" xmlns="http://www.w3.org/2000/svg">
<path d="M87.8449 40.6041C87.8449 55.4449 70.849 61.151 67.2 66.502C64.4694 70.4816 65.3755 76.0898 57.8449 76.0898C52.9347 76.0898 50.5469 72.098 50.5469 68.449C50.5469 54.8571 70.5061 51.7959 70.5061 40.6041C70.5061 34.4449 66.3918 30.7959 59.5469 30.7959C44.9388 30.7959 50.6449 45.8571 39.5878 45.8571C35.5837 45.8571 32.1673 43.4571 32.1673 38.902C32.1673 27.7102 44.9388 17.7918 58.8612 17.7918C73.4571 17.7796 87.8449 24.5143 87.8449 40.6041ZM58.298 83.498C53.1673 83.498 48.9429 87.7224 48.9429 92.8531C48.9429 97.9837 53.1673 102.208 58.298 102.208C63.4286 102.208 67.6531 97.9837 67.6531 92.8531C67.6408 87.7224 63.4163 83.498 58.298 83.498ZM120 60C120 93.0857 93.0857 120 60 120C26.9143 120 0 93.0857 0 60C0 26.9143 26.9143 0 60 0C93.0857 0 120 26.9143 120 60ZM108.747 60C108.747 33.1224 86.8776 11.2531 60 11.2531C33.1224 11.2531 11.2531 33.1224 11.2531 60C11.2531 86.8776 33.1224 108.747 60 108.747C86.8776 108.747 108.747 86.8776 108.747 60Z" fill="#EF586E"/>
</svg>
