<svg width="117" height="92" viewBox="0 0 117 92" fill="none" xmlns="http://www.w3.org/2000/svg">
<path d="M51.0047 36.0672C51.0047 33.8328 52.8328 32.0047 55.0672 32.0047H58.3172C60.7344 32.0047 62.5625 33.8328 62.5625 36.0672V49.8797H63.375C65.6094 49.8797 67.4375 51.7078 67.4375 53.9422C67.4375 56.3594 65.6094 58.0047 63.375 58.0047H53.4422C51.2078 58.0047 49.3797 56.3594 49.3797 53.9422C49.3797 51.7078 51.2078 49.8797 53.4422 49.8797H54.2547V40.2313C52.5891 39.8453 51.0047 38.2203 51.0047 36.0672V36.0672ZM9.88406 10.0733C26.0812 14.4953 42.2906 10.3698 58.5 6.23829C76.1719 1.73501 93.8438 -2.77031 111.516 3.82719C114.948 5.10891 117 8.54782 117 12.2122V75.1484C117 80.0031 111.8 83.2125 107.108 81.9328C90.9187 77.5047 74.7094 81.6281 58.5 85.7516C40.6453 90.2609 22.9734 94.7703 5.47828 88.1688C2.04344 86.8891 0 83.4563 0 79.7797V16.8516C0 11.9948 5.20203 8.7936 9.88406 10.0733ZM25.8172 78.5C25.8172 71.3297 20.1805 65.5 12.8172 65.5V78.5H25.8172ZM12.8172 39.3172C20.1805 39.3172 25.8172 33.6703 25.8172 26.3172H12.8172V39.3172ZM104 65.5V52.3172C96.8297 52.3172 91 58.3297 91 65.5H104ZM104 13.3172H91C91 20.6703 96.8297 26.3172 104 26.3172V13.3172ZM58.3172 23.0672C47.5516 23.0672 38.8172 33.4266 38.8172 45.8172C38.8172 58.5734 47.5516 68.75 58.3172 68.75C69.2656 68.75 78 58.5734 78 45.8172C78 33.4266 69.2656 23.0672 58.3172 23.0672V23.0672Z" fill="#32D5AA"/>
</svg>
