<svg width="95" height="111" viewBox="0 0 95 111" fill="none" xmlns="http://www.w3.org/2000/svg">
<path d="M31.7088 23.9316C30.7865 23.769 29.8374 23.9794 29.0702 24.5166C28.303 25.0537 27.7807 25.8737 27.618 26.796C27.4554 27.7183 27.6658 28.6675 28.203 29.4346C28.7402 30.2018 29.5601 30.7242 30.4825 30.8868L31.7088 23.9316ZM44.3929 33.3396C45.3152 33.5022 46.2643 33.2918 47.0315 32.7546C47.7987 32.2174 48.321 31.3975 48.4837 30.4752C48.6463 29.5529 48.4359 28.6037 47.8987 27.8365C47.3615 27.0694 46.5416 26.547 45.6193 26.3844L44.3929 33.3396ZM27.4165 48.2748C26.4942 48.1122 25.545 48.3226 24.7778 48.8598C24.0107 49.397 23.4883 50.2169 23.3257 51.1392C23.163 52.0615 23.3735 53.0107 23.9107 53.7779C24.4478 54.545 25.2678 55.0674 26.1901 55.23L27.4165 48.2748ZM67.9213 62.5884C68.8436 62.751 69.7928 62.5406 70.56 62.0034C71.3271 61.4662 71.8495 60.6463 72.0121 59.7239C72.1747 58.8016 71.9643 57.8525 71.4271 57.0853C70.89 56.3181 70.07 55.7958 69.1477 55.6331L67.9213 62.5884ZM24.9637 62.1852C24.0414 62.0226 23.0922 62.233 22.3251 62.7702C21.5579 63.3074 21.0355 64.1273 20.8729 65.0496C20.7103 65.9719 20.9207 66.9211 21.4579 67.6883C21.9951 68.4554 22.815 68.9778 23.7373 69.1404L24.9637 62.1852ZM65.4685 76.4988C66.3909 76.6614 67.34 76.451 68.1072 75.9138C68.8743 75.3766 69.3967 74.5567 69.5593 73.6344C69.722 72.712 69.5115 71.7629 68.9744 70.9957C68.4372 70.2285 67.6172 69.7062 66.6949 69.5436L65.4685 76.4988ZM22.5109 76.0956C21.5886 75.933 20.6395 76.1434 19.8723 76.6806C19.1051 77.2178 18.5827 78.0377 18.4201 78.96C18.2575 79.8824 18.4679 80.8315 19.0051 81.5987C19.5423 82.3658 20.3622 82.8882 21.2845 83.0508L22.5109 76.0956ZM35.1949 85.5036C36.1173 85.6662 37.0664 85.4558 37.8336 84.9186C38.6007 84.3815 39.1231 83.5615 39.2857 82.6392C39.4484 81.7169 39.2379 80.7677 38.7008 80.0006C38.1636 79.2334 37.3436 78.711 36.4213 78.5484L35.1949 85.5036ZM27.2064 8.79479L82.8481 18.6059L84.0744 11.6507L28.4328 1.83959L27.2064 8.79479ZM85.7125 22.6967L72.2222 99.204L79.1774 100.43L92.6677 23.9231L85.7125 22.6967ZM68.1314 102.068L12.4897 92.2573L11.2633 99.2125L66.905 109.024L68.1314 102.068ZM9.62533 88.1665L23.1156 11.6592L16.1604 10.4328L2.67012 86.9401L9.62533 88.1665ZM12.4897 92.2573C11.5674 92.0946 10.7475 91.5723 10.2103 90.8051C9.67312 90.0379 9.4627 89.0888 9.62533 88.1665L2.67012 86.9401C2.18223 89.707 2.8135 92.5545 4.42504 94.856C6.03658 97.1575 8.49639 98.7246 11.2633 99.2125L12.4897 92.2573ZM72.2222 99.204C72.0595 100.126 71.5372 100.946 70.77 101.483C70.0028 102.021 69.0537 102.231 68.1314 102.068L66.905 109.024C69.6719 109.511 72.5194 108.88 74.8209 107.269C77.1224 105.657 78.6895 103.197 79.1774 100.43L72.2222 99.204ZM82.8481 18.6059C83.7704 18.7685 84.5903 19.2909 85.1275 20.0581C85.6647 20.8252 85.8751 21.7744 85.7125 22.6967L92.6677 23.9231C93.1556 21.1561 92.5243 18.3087 90.9128 16.0072C89.3012 13.7057 86.8414 12.1386 84.0744 11.6507L82.8481 18.6059ZM28.4328 1.83959C25.6659 1.3517 22.8184 1.98296 20.5169 3.5945C18.2154 5.20604 16.6483 7.66585 16.1604 10.4328L23.1156 11.6592C23.2782 10.7369 23.8006 9.91694 24.5678 9.37976C25.335 8.84258 26.2841 8.63216 27.2064 8.79479L28.4328 1.83959ZM30.4825 30.8868L44.3929 33.3396L45.6193 26.3844L31.7088 23.9316L30.4825 30.8868ZM26.1901 55.23L67.9213 62.5884L69.1477 55.6331L27.4165 48.2748L26.1901 55.23ZM23.7373 69.1404L65.4685 76.4988L66.6949 69.5436L24.9637 62.1852L23.7373 69.1404ZM21.2845 83.0508L35.1949 85.5036L36.4213 78.5484L22.5109 76.0956L21.2845 83.0508Z" fill="#1766F9"/>
<path d="M72.5203 36.5064C73.4806 36.6757 74.3963 36.0345 74.5657 35.0742C74.735 34.1139 74.0938 33.1981 73.1335 33.0288C72.1732 32.8594 71.2574 33.5007 71.0881 34.461C70.9187 35.4213 71.56 36.337 72.5203 36.5064Z" fill="#1766F9" stroke="#1766F9" stroke-width="3.53125"/>
</svg>
